<?xml version="1.0" encoding="iso-8859-1"?>
<!-- Uploaded to: SVG Repo, www.svgrepo.com, Generator: SVG Repo Mixer Tools -->
<svg fill="#000000" version="1.1" id="Layer_1" xmlns="http://www.w3.org/2000/svg" xmlns:xlink="http://www.w3.org/1999/xlink" 
	 viewBox="0 0 496 496" xml:space="preserve">
<g>
	<g>
		<g>
			<path d="M480,0v32h-48V0h-16v32v8v8h16v84.904l-52.288-17.432l4.288-9.8V81.76l-30.584-7.648C337.48,29.592,295.672,0,248,0
				s-89.48,29.592-105.416,74.112L112,81.76v23.912l4.288,9.8L64,132.904V48h16v-8v-8V0H64v32H16V0H0v32v8v8h16v120
				c0,17.648,14.352,32,32,32c12.192,0,22.688-6.928,28.088-16.984l59.92-22.472L168,233.672V312v8v128h-48v48h112v-40v-8V320h32
				v128v8v40h112v-48h-48V320v-8v-64h8c4.416,0,8,3.584,8,8v136c0,13.232,10.768,24,24,24h8v16h120V272H376v128h-8
				c-4.416,0-8-3.584-8-8V256c0-13.232-10.768-24-24-24h-7.272l31.264-71.456l59.92,22.472C425.312,193.072,435.808,200,448,200
				c17.648,0,32-14.352,32-32V48h16v-8v-8V0H480z M32,48h16v88c-5.856,0-11.272,1.696-16,4.448V48z M48,184c-8.816,0-16-7.176-16-16
				c0-8.824,7.184-16,16-16s16,7.176,16,16C64,176.824,56.816,184,48,184z M392,288h88v32h-88V288z M392,336h88v80h-88V336z
				 M79.656,164.584c-0.72-6.672-3.44-12.688-7.632-17.496l50.696-16.896l6.856,15.672L79.656,164.584z M216,480h-80v-16h80V480z
				 M216,448h-32v-36.448c4.728,2.752,10.144,4.448,16,4.448s11.272-1.696,16-4.448V448z M200,400c-8.824,0-16-7.176-16-16
				c0-8.824,7.176-16,16-16c8.824,0,16,7.176,16,16C216,392.824,208.824,400,200,400z M216,356.448
				c-4.728-2.752-10.144-4.448-16-4.448s-11.272,1.696-16,4.448V320h32V356.448z M360,464v16h-80v-16H360z M296,368
				c8.824,0,16,7.176,16,16c0,8.824-7.176,16-16,16c-8.824,0-16-7.176-16-16C280,375.176,287.176,368,296,368z M280,356.448V320h32
				v36.448c-4.728-2.752-10.144-4.448-16-4.448C290.144,352,284.728,353.696,280,356.448z M296,416c5.856,0,11.272-1.696,16-4.448
				V448h-32v-36.448C284.728,414.304,290.144,416,296,416z M312,230.328V304H184v-73.672l-56-128V94.24l27.064-6.768l1.344-4.272
				C169.032,43.008,205.832,16,248,16c42.168,0,78.968,27.008,91.592,67.2l1.344,4.272L368,94.24v8.088L312,230.328z
				 M416.344,164.584l-49.928-18.72l6.856-15.672l50.696,16.896C419.784,151.896,417.064,157.912,416.344,164.584z M448,184
				c-8.824,0-16-7.176-16-16c0-8.824,7.176-16,16-16c8.824,0,16,7.176,16,16C464,176.824,456.824,184,448,184z M464,140.448
				c-4.728-2.752-10.144-4.448-16-4.448V48h16V140.448z"/>
			<path d="M248,32c-44.112,0-80,35.888-80,80s35.888,80,80,80s80-35.888,80-80S292.112,32,248,32z M248,176
				c-35.288,0-64-28.712-64-64c0-35.288,28.712-64,64-64c35.288,0,64,28.712,64,64C312,147.288,283.288,176,248,176z"/>
			<path d="M200,112h16c0-17.648,14.352-32,32-32V64C221.528,64,200,85.528,200,112z"/>
			<rect x="408" y="352" width="16" height="16"/>
			<rect x="448" y="352" width="16" height="16"/>
			<rect x="408" y="384" width="16" height="16"/>
			<rect x="448" y="384" width="16" height="16"/>
			<path d="M200,288h96v-64h-96V288z M216,240h64v32h-64V240z"/>
		</g>
	</g>
</g>
</svg>